<svg id="Layer_1" height="512" viewBox="0 0 256 256" width="512" xmlns="http://www.w3.org/2000/svg"><g><g><path d="m156.722 119.804 26.172 19.653c1.521 1.142 3.423 1.655 5.313 1.43l25.08-2.979c4.055-.482 6.952-4.159 6.471-8.215-.481-4.057-4.159-6.954-8.215-6.471l-22.137 2.629-23.802-17.874c-3.266-2.452-7.901-1.793-10.354 1.473-2.453 3.267-1.794 7.902 1.472 10.354z" fill="#63bce7"/></g><path d="m148.376 111.161h5.474v41.474h-5.474z" fill="#cecece" transform="matrix(.812 -.583 .583 .812 -48.568 112.926)"/><circle cx="50.945" cy="95.193" fill="#f8af23" r="18.266"/><path d="m47.08 95.192c0-7.531 4.559-13.993 11.066-16.787-2.21-.949-4.643-1.479-7.2-1.479-10.088 0-18.266 8.178-18.266 18.266s8.178 18.266 18.266 18.266c2.558 0 4.99-.53 7.2-1.479-6.507-2.794-11.066-9.256-11.066-16.787z" fill="#f87023"/><path d="m71.204 159.955h-40.518v-27.982c0-10.225 8.289-18.514 18.514-18.514h3.489c10.225 0 18.514 8.289 18.514 18.514v27.982z" fill="#f46275"/><path d="m58.278 114.322c-1.764-.558-3.64-.863-5.589-.863h-3.489c-10.225 0-18.514 8.289-18.514 18.514v27.982h14.667v-27.982c0-8.277 5.433-15.281 12.925-17.651z" fill="#f43075"/><g><path d="m81.649 159.955c4.339 0 8.281 2.531 10.086 6.477l18.681 40.823c2.549 5.57.1 12.152-5.471 14.701-1.496.684-3.065 1.009-4.609 1.009-4.206.001-8.228-2.404-10.093-6.479l-15.717-34.346h-32.748c-6.126 0-11.092-4.966-11.092-11.092v-11.092h50.963z" fill="#cecece"/></g><g fill="#afafaf"><path d="m104.911 216.485-15.718-34.346h-14.666l15.718 34.346c1.865 4.075 5.887 6.48 10.093 6.479 1.544 0 3.113-.324 4.609-1.009 1.017-.465 1.927-1.068 2.724-1.771-1.135-.998-2.091-2.236-2.76-3.699z"/><path d="m45.353 171.047v-11.092h-14.667v11.092c0 6.126 4.966 11.092 11.092 11.092h14.667c-6.126 0-11.092-4.966-11.092-11.092z"/></g><g><path d="m101.941 151.516h-32.73c-1.902 0-3.731-.733-5.107-2.047l-18.266-17.441c-2.954-2.82-3.062-7.501-.242-10.454 2.82-2.955 7.501-3.063 10.455-.242l16.123 15.395h29.766c4.084 0 7.395 3.311 7.395 7.395.001 4.084-3.31 7.394-7.394 7.394z" fill="#f46275"/></g><circle cx="205.055" cy="95.193" fill="#f8af23" r="18.266"/><path d="m208.92 95.192c0-7.531-4.559-13.993-11.066-16.787 2.21-.949 4.643-1.479 7.2-1.479 10.088 0 18.266 8.178 18.266 18.266s-8.178 18.266-18.266 18.266c-2.558 0-4.99-.53-7.2-1.479 6.507-2.794 11.066-9.256 11.066-16.787z" fill="#f8d323"/><path d="m184.796 159.955h40.518v-27.982c0-10.225-8.289-18.514-18.514-18.514h-3.489c-10.225 0-18.514 8.289-18.514 18.514v27.982z" fill="#63bce7"/><path d="m197.721 114.322c1.764-.558 3.64-.863 5.589-.863h3.489c10.225 0 18.514 8.289 18.514 18.514v27.982h-14.667v-27.982c.001-8.277-5.432-15.281-12.925-17.651z" fill="#63e2e7"/><g><path d="m174.351 159.955c-4.339 0-8.281 2.531-10.086 6.477l-18.681 40.823c-2.549 5.57-.1 12.152 5.471 14.701 1.496.684 3.065 1.009 4.609 1.009 4.206.001 8.228-2.404 10.093-6.479l15.717-34.346h32.748c6.126 0 11.092-4.966 11.092-11.092v-11.092h-50.963z" fill="#cecece"/></g><g fill="#e2e2e2"><path d="m151.089 216.485 15.718-34.346h14.667l-15.718 34.346c-1.865 4.075-5.887 6.48-10.093 6.479-1.544 0-3.113-.324-4.609-1.009-1.017-.465-1.927-1.068-2.724-1.771 1.134-.998 2.09-2.236 2.759-3.699z"/><path d="m210.647 171.047v-11.092h14.667v11.092c0 6.126-4.966 11.092-11.092 11.092h-14.667c6.126 0 11.092-4.966 11.092-11.092z"/></g><g><path d="m154.059 151.516h32.73c1.902 0 3.731-.733 5.107-2.047l18.266-17.441c2.954-2.82 3.062-7.501.242-10.454-2.82-2.955-7.501-3.063-10.455-.242l-16.123 15.395h-29.766c-4.084 0-7.395 3.311-7.395 7.395-.001 4.084 3.31 7.394 7.394 7.394z" fill="#63bce7"/></g><g><path d="m157.636 118.637-8.492 3.683-.27-9.252z" fill="#f46275"/><path d="m144.917 95.482h35.973v10.382h-35.973z" fill="#cecece" transform="matrix(.536 -.844 .844 .536 -9.446 184.148)"/><path d="m176.933 88.278-8.762-5.569 2.943-4.63c1.538-2.42 4.746-3.134 7.166-1.596 2.42 1.538 3.134 4.746 1.596 7.166z" fill="#63bce7"/></g><path d="m103.633 80.894c-13.458-13.458-13.459-35.279 0-48.737 13.458-13.458 35.279-13.458 48.737 0 11.431 11.431 13.147 28.893 5.16 42.141l1.38 13.136-13.136-1.38c-13.248 7.987-30.71 6.271-42.141-5.16z" fill="#cecece"/><path d="m137.704 32.156c-4.852-4.852-10.793-7.945-17.035-9.299 11.072-2.401 23.096.692 31.702 9.299 11.431 11.431 13.147 28.893 5.16 42.141l1.38 13.136-13.136-1.38c-.52.314-1.049.607-1.582.891l-1.328-12.647c7.986-13.248 6.27-30.709-5.161-42.141z" fill="#e2e2e2"/><g><path d="m143.374 49.833c0-8.491-6.883-15.374-15.374-15.374s-15.374 6.883-15.374 15.374c0 4.496 1.93 8.54 5.006 11.351v7.037c0 5.726 4.642 10.367 10.367 10.367 5.726 0 10.367-4.642 10.367-10.367v-7.037c3.078-2.812 5.008-6.856 5.008-11.351z" fill="#f8af23"/><path d="m117.633 68.22c0 5.726 4.642 10.367 10.367 10.367 5.726 0 10.367-4.642 10.367-10.367v-1.374h-20.735v1.374z" fill="#cecece"/><g><circle cx="128" cy="50.314" fill="#f8af23" r="6.21"/><g fill="#3f3679"><path d="m128 92.511c6.207 0 12.46-1.612 18.112-4.913l12.642 1.328c.445.041.897-.111 1.217-.432.32-.32.479-.768.432-1.217l-1.328-12.642c8.24-14.109 5.953-31.943-5.644-43.54-14.021-14.021-36.837-14.021-50.858 0-14.021 14.022-14.021 36.837 0 50.858 6.95 6.952 16.14 10.558 25.427 10.558zm-23.307-59.294c6.427-6.427 14.866-9.639 23.309-9.639 8.439 0 16.883 3.214 23.308 9.639 10.739 10.739 12.769 27.313 4.937 40.307-.169.279-.242.606-.208.931l1.187 11.294-11.294-1.187c-.321-.03-.651.04-.931.208-12.993 7.831-29.568 5.802-40.307-4.937-12.852-12.852-12.852-33.764-.001-46.616z"/><path d="m27.323 232.438h-18.003c-.828 0-1.5.672-1.5 1.5s.672 1.5 1.5 1.5h18.003c.828 0 1.5-.672 1.5-1.5s-.672-1.5-1.5-1.5z"/><path d="m246.68 232.438h-18.003c-.828 0-1.5.672-1.5 1.5s.672 1.5 1.5 1.5h18.003c.828 0 1.5-.672 1.5-1.5s-.672-1.5-1.5-1.5z"/><path d="m218.479 232.438h-180.958c-.828 0-1.5.672-1.5 1.5s.672 1.5 1.5 1.5h180.959c.828 0 1.5-.672 1.5-1.5s-.672-1.5-1.501-1.5z"/><path d="m9.32 224.465h237.36c.828 0 1.5-.672 1.5-1.5s-.672-1.5-1.5-1.5h-9.142v-39.325-68.681c0-.828-.672-1.5-1.5-1.5s-1.5.672-1.5 1.5v67.181h-12.179c2.72-2.312 4.454-5.751 4.454-9.593v-11.092-27.982c0-8.727-5.625-16.147-13.431-18.878 6.744-3.151 11.439-9.98 11.439-17.902 0-10.899-8.867-19.767-19.767-19.767s-19.767 8.867-19.767 19.767c0 7.922 4.695 14.751 11.439 17.902-4.405 1.541-8.102 4.574-10.496 8.498l-19.425-14.586 11.393-17.923 2.943-4.631c1.979-3.114 1.056-7.257-2.058-9.235-3.112-1.979-7.256-1.057-9.236 2.057l-2.942 4.631-19.298 30.359c-.163.255-.242.551-.233.849h-.001l.193 6.587-5.111-7.115c-.483-.673-1.422-.824-2.094-.344l-4.446 3.193c-.323.232-.541.583-.605.976s.03.795.262 1.118l13.718 19.098c-2.476 1.581-4.127 4.347-4.127 7.496 0 4.905 3.99 8.896 8.895 8.896h29.237v5.438h-8.945c-4.912 0-9.406 2.886-11.45 7.353l-18.682 40.823c-2.397 5.238-.878 11.276 3.313 14.834h-39.064c4.191-3.558 5.71-9.596 3.313-14.834l-18.68-40.825c-2.044-4.467-6.538-7.353-11.45-7.353h-8.945v-5.438h29.237c4.904 0 8.895-3.99 8.895-8.896 0-4.904-3.99-8.895-8.895-8.895h-29.166l-.072-.069v-3.185c0-8.727-5.624-16.147-13.432-18.878 6.744-3.15 11.439-9.98 11.439-17.902 0-10.899-8.867-19.767-19.767-19.767s-19.767 8.867-19.767 19.767c0 7.922 4.695 14.751 11.439 17.902-7.807 2.731-13.431 10.152-13.431 18.878v27.982 11.092c0 3.841 1.734 7.281 4.454 9.593h-12.177v-67.181c0-.828-.672-1.5-1.5-1.5s-1.5.672-1.5 1.5v68.681 39.325h-9.142c-.828 0-1.5.672-1.5 1.5s.672 1.501 1.5 1.501zm63.384-3v-37.825h.859l15.316 33.47c.782 1.708 1.924 3.183 3.309 4.355zm109.733-37.825h.859v37.825h-19.485c1.385-1.173 2.527-2.647 3.309-4.355zm52.101 0v37.825h-48.242v-37.825h27.926zm-46.25-88.448c0-9.245 7.521-16.767 16.767-16.767s16.767 7.521 16.767 16.767-7.521 16.767-16.767 16.767-16.767-7.521-16.767-16.767zm-3.455 29.101c-.988 2.367-1.538 4.959-1.538 7.68v3.185l-.072.069h-3.478c-.019-.016-.034-.035-.054-.05l-20.853-15.659c.019-.027.045-.047.063-.075l6.291-9.897zm-30.389-5.906-3.865 1.676-.123-4.211zm14.189-33.608 3.115 1.98 3.115 1.98-17.688 27.828-6.23-3.96zm3.747-5.896c1.094-1.717 3.38-2.223 5.096-1.135 1.718 1.092 2.227 3.377 1.136 5.095l-2.139 3.365-3.115-1.98-3.115-1.98zm-16.511 42.155 18.894 14.188h-16.043l-8.448-11.761zm-16.983-4.042 2.009-1.443 14.131 19.674h-.967c-.661 0-1.303.078-1.923.215zm9.278 27.125c0-3.25 2.645-5.895 5.895-5.895h29.767c.386 0 .757-.148 1.036-.415l16.123-15.396c1.138-1.087 2.614-1.693 4.207-1.63 1.573.036 3.039.684 4.127 1.823 2.244 2.351 2.158 6.089-.192 8.334l-18.267 17.441c-1.102 1.053-2.548 1.632-4.07 1.632h-32.73c-3.251.002-5.896-2.643-5.896-5.894zm38.132 8.896h.493c2.298 0 4.479-.874 6.143-2.462l18.267-17.441c3.546-3.388 3.676-9.029.29-12.575-1.641-1.72-3.853-2.696-6.229-2.752-2.369-.025-4.63.819-6.348 2.461l-12.616 12.046v-.321c0-9.382 7.633-17.014 17.015-17.014h3.489c9.382 0 17.014 7.632 17.014 17.014v26.482h-37.518zm-34.618 67.575c-4.809-2.201-6.931-7.904-4.73-12.713l18.682-40.823c1.557-3.402 4.98-5.601 8.722-5.601h10.445 39.018v9.592c0 5.289-4.303 9.593-9.592 9.593h-32.748c-.587 0-1.12.342-1.364.876l-15.718 34.346c-1.558 3.404-4.984 5.604-8.729 5.604-1.38-.001-2.721-.295-3.986-.874zm-49.737-82.365c3.25 0 5.895 2.645 5.895 5.895 0 3.251-2.645 5.896-5.895 5.896h-32.73c-1.522 0-2.969-.579-4.07-1.632l-18.267-17.441c-2.351-2.245-2.437-5.983-.192-8.335 1.088-1.139 2.554-1.786 4.127-1.822.047-.002.094-.002.14-.002 1.523 0 2.963.576 4.067 1.633l16.123 15.395c.279.267.65.415 1.036.415h29.766zm-67.762-43.035c0-9.245 7.521-16.767 16.767-16.767s16.767 7.521 16.767 16.767-7.521 16.767-16.767 16.767-16.767-7.521-16.767-16.767zm-1.992 36.781c0-9.382 7.632-17.014 17.014-17.014h3.489c9.382 0 17.015 7.632 17.015 17.014v.321l-12.616-12.045c-1.717-1.642-3.943-2.503-6.348-2.462-2.376.056-4.588 1.032-6.229 2.751-3.386 3.547-3.256 9.188.29 12.576l18.267 17.441c1.663 1.588 3.845 2.462 6.143 2.462h.493v5.438h-37.518zm0 39.074v-9.592h39.018 10.445c3.741 0 7.165 2.198 8.722 5.601l18.682 40.823c2.2 4.809.078 10.512-4.73 12.713-1.266.579-2.606.873-3.984.873-3.745 0-7.172-2.199-8.729-5.604l-15.718-34.346c-.244-.534-.777-.876-1.364-.876h-32.751c-5.289.001-9.591-4.303-9.591-9.592zm-10.725 12.593h20.316 27.926v37.825h-48.242z"/><path d="m116.133 68.221c0 6.544 5.323 11.867 11.867 11.867s11.867-5.323 11.867-11.867v-6.395c3.19-3.159 5.007-7.492 5.007-11.993 0-9.305-7.569-16.874-16.874-16.874s-16.874 7.569-16.874 16.874c0 4.501 1.816 8.834 5.007 11.993zm11.867 8.867c-4.847 0-8.792-3.91-8.861-8.741h17.722c-.069 4.831-4.014 8.741-8.861 8.741zm0-22.065c-2.597 0-4.71-2.113-4.71-4.71s2.113-4.709 4.71-4.709 4.71 2.112 4.71 4.709-2.113 4.71-4.71 4.71zm-13.874-5.19c0-7.65 6.224-13.874 13.874-13.874s13.874 6.224 13.874 13.874c0 3.885-1.647 7.619-4.519 10.243-.312.284-.488.687-.488 1.107v4.163h-7.367v-7.472c3.535-.7 6.21-3.823 6.21-7.561 0-4.251-3.459-7.709-7.71-7.709s-7.71 3.458-7.71 7.709c0 3.738 2.675 6.861 6.21 7.561v7.472h-7.367v-4.163c0-.421-.177-.823-.488-1.107-2.872-2.624-4.519-6.358-4.519-10.243z"/></g></g></g></g></svg>